<svg width="180" height="173" fill="none" xmlns="http://www.w3.org/2000/svg"><path d="M24.34 89.931c4.347 27.967 6.546 48.35 22.747 49.339 16.2.99 17.05-11.851 15.449-18.396-.744-5.938 4.878-18.502 33.313-21.254 35.544-3.44 25.777 6.478 45.754 12.012 19.976 5.533 23.078-8.283 10.73-42.688-9.879-27.524-19.286-40.971-28.235-38.738-15.422 3.847-52.213 12.772-76.004 17.688-29.738 6.145-28.102 14.07-23.755 42.037Z" fill="url(#a)"/><path d="m27.678 69.725 21.247-6.035 1.684 5.926-15.11 4.292 1.887 6.645 13.375-3.8 1.683 5.926-13.375 3.8 1.912 6.73 15.702-4.461 1.684 5.925-21.84 6.204-8.85-31.152Zm36.186 3.398 1.403 3.17-.168-.273c.32-1.341.972-2.533 1.957-3.575.977-1.07 2.326-1.85 4.047-2.339 1.75-.497 3.351-.387 4.805.328 1.473.68 2.457 1.833 2.95 3.462l3.931 13.84-5.925 1.683-3.307-11.64c-.26-.81-.67-1.394-1.23-1.754-.54-.396-1.289-.457-2.248-.185a3.625 3.625 0 0 0-2.118 1.563c-.509.784-.802 1.737-.88 2.857-.079 1.12.07 2.343.447 3.67l2.14 7.533-5.925 1.683-5.254-18.496 5.375-1.527ZM92.638 94.59l-4.475-2.709a6.551 6.551 0 0 0 1.298-2.838c.223-1.04.15-2.208-.218-3.506l-5.158-18.158 5.926-1.683 5.254 18.496c.625 2.201.747 4.134.365 5.797-.373 1.692-1.37 3.225-2.992 4.6ZM82.01 60.879c-.249-.875-.114-1.69.403-2.447.545-.765 1.212-1.26 2.002-1.484.79-.224 1.59-.147 2.4.233.837.373 1.38.996 1.629 1.87.248.875.114 1.691-.403 2.448-.497.72-1.14 1.193-1.93 1.417-.79.224-1.614.169-2.472-.167-.838-.372-1.38-.995-1.629-1.87ZM97.224 73.39c-.537-1.89-.58-3.708-.13-5.452.478-1.752 1.4-3.28 2.769-4.583 1.359-1.331 3.083-2.294 5.171-2.887 2.117-.601 4.075-.685 5.875-.25 1.793.405 3.311 1.24 4.554 2.502 1.271 1.255 2.175 2.828 2.712 4.719.537 1.89.599 3.718.185 5.482-.393 1.728-1.242 3.25-2.545 4.565-1.304 1.316-3.042 2.282-5.215 2.9-2.031.576-3.963.698-5.796.365a9.275 9.275 0 0 1-4.699-2.37c-1.327-1.24-2.288-2.903-2.881-4.991Zm5.98-1.653c.272.96.718 1.778 1.338 2.456a4.982 4.982 0 0 0 2.125 1.363c.806.26 1.632.269 2.478.028.931-.264 1.671-.719 2.22-1.362a4.644 4.644 0 0 0 1.049-2.265c.143-.894.078-1.821-.195-2.78-.28-.988-.712-1.811-1.295-2.469a4.655 4.655 0 0 0-2.083-1.375c-.806-.259-1.674-.256-2.605.008a4.18 4.18 0 0 0-2.093 1.327 4.987 4.987 0 0 0-1.092 2.277c-.179.874-.128 1.805.153 2.792Zm25.718 12.5 4.539-30.883 5.333-1.515-4.158 30.775-5.714 1.623Zm2.452-10.21L117.038 58.02l6.645-1.888 11.42 13.635-3.729 4.261Z" fill="#F2F2F2"/><defs><linearGradient id="a" x1="124.991" y1="13.117" x2="-4.495" y2="344.617" gradientUnits="userSpaceOnUse"><stop stop-color="#2E2594"/><stop offset="1" stop-color="#F73B6C"/></linearGradient></defs></svg>