<svg width="160" height="31" fill="none" xmlns="http://www.w3.org/2000/svg"><path d="M25.68 27.04c-.347.373-.893.76-1.64 1.16-.747.373-1.613.72-2.6 1.04-.96.32-1.947.573-2.96.76-1.013.213-1.973.32-2.88.32-2.4 0-4.56-.347-6.48-1.04-1.92-.72-3.56-1.707-4.92-2.96a12.969 12.969 0 0 1-3.12-4.52C.36 20.067 0 18.173 0 16.12c0-2.693.4-5.027 1.2-7 .827-2 1.933-3.653 3.32-4.96A13.558 13.558 0 0 1 9.36 1.2C11.2.56 13.12.24 15.12.24c1.893 0 3.627.213 5.2.64 1.573.4 2.907.907 4 1.52l-1.88 5.4c-.48-.267-1.12-.533-1.92-.8-.8-.267-1.613-.48-2.44-.64-.827-.187-1.56-.28-2.2-.28-1.6 0-3.013.2-4.24.6-1.227.4-2.267 1-3.12 1.8-.827.8-1.453 1.8-1.88 3C6.213 12.653 6 14.027 6 15.6c0 1.387.24 2.64.72 3.76a8.149 8.149 0 0 0 2 2.8 9.018 9.018 0 0 0 3.08 1.76c1.2.4 2.52.6 3.96.6.827 0 1.587-.053 2.28-.16.693-.133 1.28-.333 1.76-.6V20.2h-5.08v-5.6h10.96v12.44Zm13.029 3.44c-1.627 0-3.107-.32-4.44-.96-1.307-.667-2.347-1.68-3.12-3.04-.774-1.36-1.16-3.093-1.16-5.2 0-1.973.4-3.68 1.2-5.12.8-1.44 1.853-2.547 3.16-3.32 1.306-.8 2.693-1.2 4.16-1.2 1.733 0 3.04.293 3.92.88.906.56 1.653 1.187 2.24 1.88l-.24.68.52-2.56h5.2V30h-5.6v-3.8l.44 1.2c-.054 0-.214.16-.48.48-.267.293-.667.653-1.2 1.08-.507.4-1.147.747-1.92 1.04-.747.32-1.64.48-2.68.48Zm1.6-4.56c.666 0 1.266-.093 1.8-.28.533-.213 1-.507 1.4-.88.4-.4.746-.893 1.04-1.48V19a3.75 3.75 0 0 0-.96-1.48 4.103 4.103 0 0 0-1.52-.96c-.587-.24-1.24-.36-1.96-.36-.8 0-1.547.213-2.24.64-.667.4-1.2.96-1.6 1.68-.4.72-.6 1.547-.6 2.48s.213 1.773.64 2.52a4.844 4.844 0 0 0 1.68 1.76 4.47 4.47 0 0 0 2.32.64Zm20.69-13.4.44 3.08-.08-.24c.693-1.173 1.56-2.08 2.6-2.72 1.04-.667 2.293-1 3.76-1 .96 0 1.8.133 2.52.4a4.751 4.751 0 0 1 1.88 1.2c.507.507.853 1.173 1.04 2l-.2.04c.747-1.093 1.64-1.973 2.68-2.64 1.067-.667 2.173-1 3.32-1 1.733 0 3.107.493 4.12 1.48 1.04.96 1.573 2.213 1.6 3.76V30h-5.56V19.2c-.027-.773-.147-1.4-.36-1.88-.213-.507-.707-.787-1.48-.84-.907 0-1.68.32-2.32.96-.613.613-1.08 1.413-1.4 2.4-.293.96-.44 1.96-.44 3V30h-5.6V19.2c-.027-.773-.173-1.4-.44-1.88-.24-.507-.747-.787-1.52-.84-.88 0-1.627.32-2.24.96-.587.613-1.04 1.4-1.36 2.36-.293.96-.44 1.947-.44 2.96V30h-5.6V12.52H61Zm29.451 0h5.6V30h-5.6V12.52Zm-.12-6.2c0-.827.32-1.507.96-2.04.667-.533 1.374-.8 2.12-.8.747 0 1.427.267 2.04.8.64.533.96 1.213.96 2.04s-.32 1.507-.96 2.04c-.613.507-1.293.76-2.04.76-.746 0-1.453-.253-2.12-.76-.64-.533-.96-1.213-.96-2.04Zm19.408 11.76 3.32-5.56h5.56l-6.92 9.6-1.96-4.04Zm9.84 11.92h-6.76l-13.48-17.48h6.88L119.578 30Zm-10.56-5.6-3.92 5.6h-5.56l6.92-9.36 2.56 3.76Z" fill="url(#a)"/><path d="M122.152 18.4h7.52v4.88h-7.52V18.4Z" fill="#2E2594"/><path d="M159.899 27.04c-.347.373-.894.76-1.64 1.16-.747.373-1.614.72-2.6 1.04-.96.32-1.947.573-2.96.76-1.014.213-1.974.32-2.88.32-2.4 0-4.56-.347-6.48-1.04-1.92-.72-3.56-1.707-4.92-2.96a12.969 12.969 0 0 1-3.12-4.52c-.72-1.733-1.08-3.627-1.08-5.68 0-2.693.4-5.027 1.2-7 .826-2 1.933-3.653 3.32-4.96a13.55 13.55 0 0 1 4.84-2.96c1.84-.64 3.76-.96 5.76-.96 1.893 0 3.626.213 5.2.64 1.573.4 2.906.907 4 1.52l-1.88 5.4c-.48-.267-1.12-.533-1.92-.8-.8-.267-1.614-.48-2.44-.64-.827-.187-1.56-.28-2.2-.28-1.6 0-3.014.2-4.24.6-1.227.4-2.267 1-3.12 1.8-.827.8-1.454 1.8-1.88 3-.427 1.173-.64 2.547-.64 4.12 0 1.387.24 2.64.72 3.76a8.14 8.14 0 0 0 2 2.8 9.011 9.011 0 0 0 3.08 1.76c1.2.4 2.52.6 3.96.6.826 0 1.586-.053 2.28-.16.693-.133 1.28-.333 1.76-.6V20.2h-5.08v-5.6h10.96v12.44Z" fill="#B53071"/><defs><linearGradient id="a" x1="89.39" y1="-4.574" x2="88.746" y2="104.154" gradientUnits="userSpaceOnUse"><stop stop-color="#2E2594"/><stop offset="1" stop-color="#F73B6C"/></linearGradient></defs></svg>