<svg width="603" height="622" fill="none" xmlns="http://www.w3.org/2000/svg"><path opacity=".3" d="M392.688 20.836c-81.951 21.983-170.193 16.62-250.355-11.03C115.545.564 86.53-3.378 57.532 3.436-46.821 27.955-45.252 170.883-19.392 246.319s-87.989 136.848-84.531 237.827c3.442 100.978 195.058 42.881 275.338 61.748 46.374 10.892 79.032 71.525 225.895 75.879 146.862 4.339 254.774-52.75 182.811-240.21-71.947-187.459 44.787-312.514-74.798-367.128-34.953-15.964-81.512-1.94-112.635 6.4Z" fill="url(#a)"/><defs><linearGradient id="a" x1="234.212" y1="606.358" x2="297.565" y2="-10.946" gradientUnits="userSpaceOnUse"><stop stop-color="#fff" stop-opacity="0"/><stop offset=".99" stop-color="#fff"/></linearGradient></defs></svg>